<?xml version="1.0" standalone="no"?>
<!DOCTYPE svg PUBLIC "-//W3C//DTD SVG 20010904//EN"
 "http://www.w3.org/TR/2001/REC-SVG-20010904/DTD/svg10.dtd">
<svg version="1.0" xmlns="http://www.w3.org/2000/svg"
 width="104.000000pt" height="104.000000pt" viewBox="0 0 104.000000 104.000000"
 preserveAspectRatio="xMidYMid meet">
<metadata>
Created by potrace 1.11, written by Peter Selinger 2001-2013
</metadata>
<g transform="translate(0.000000,104.000000) scale(0.100000,-0.100000)"
fill="#000000" stroke="none">
<path d="M409 913 c-102 -26 -211 -106 -255 -188 -12 -22 -34 -40 -67 -55 -53
-24 -88 -69 -81 -104 4 -23 38 -51 63 -51 9 0 15 -5 14 -11 -1 -6 -5 -24 -8
-40 -3 -16 -8 -51 -11 -79 -4 -27 -8 -53 -10 -56 -10 -17 24 -28 56 -19 32 9
49 2 50 -22 0 -4 24 -31 53 -61 147 -148 378 -166 543 -40 41 32 45 37 28 44
-11 4 -27 1 -39 -7 -11 -8 -28 -17 -37 -21 -10 -3 -18 -8 -18 -12 0 -6 -54
-30 -90 -39 -8 -2 -46 -5 -84 -7 -124 -6 -244 55 -317 161 -30 44 -51 124 -33
124 5 0 17 -22 27 -49 20 -58 94 -139 155 -170 l42 -21 0 80 c0 71 2 80 18 80
10 0 22 3 26 7 4 4 22 8 39 9 44 3 102 11 127 19 17 5 20 2 20 -19 0 -25 -8
-31 -37 -27 -15 2 -17 -18 -3 -39 5 -9 5 -19 -2 -27 -8 -10 -6 -13 6 -13 11 0
16 9 16 30 0 59 19 29 22 -35 l3 -65 40 21 c22 11 52 34 68 50 20 22 27 25 27
12 0 -9 3 -13 8 -9 4 4 7 24 7 44 0 29 5 39 22 47 12 5 25 22 28 37 4 16 12
28 19 28 20 0 27 -12 15 -26 -5 -7 -6 -15 -1 -18 11 -7 54 23 47 33 -2 5 5 17
16 27 12 11 25 28 29 39 9 24 -5 55 -24 55 -9 0 -13 9 -11 23 1 12 6 45 10 74
7 49 6 51 -16 55 -13 2 -33 18 -46 38 -42 63 -115 131 -175 161 -32 16 -61 29
-65 29 -5 -1 -28 4 -53 9 -57 12 -95 11 -161 -6z"/>
<path d="M537 333 c-8 -17 -6 -62 3 -68 6 -4 10 10 10 34 0 39 -4 50 -13 34z"/>
<path d="M805 306 c-17 -39 -13 -58 7 -38 8 8 17 8 31 0 18 -9 19 -8 13 18 -4
16 -14 35 -21 43 -13 13 -17 10 -30 -23z m35 -6 c0 -5 -7 -10 -16 -10 -8 0
-12 5 -9 10 3 6 10 10 16 10 5 0 9 -4 9 -10z"/>
<path d="M974 311 c-4 -14 -8 -31 -9 -36 -2 -6 15 -10 36 -10 24 0 35 3 30 10
-5 5 -11 22 -14 36 -8 33 -34 33 -43 0z m31 -12 c-10 -15 -25 -10 -19 6 4 8
10 12 15 9 5 -3 7 -10 4 -15z"/>
<path d="M874 300 c3 -36 16 -53 16 -20 l0 23 23 -21 c31 -29 33 -28 35 13 2
19 -2 35 -8 35 -5 0 -10 -7 -10 -15 0 -8 -4 -15 -10 -15 -5 0 -10 7 -10 15 0
8 -9 15 -19 15 -15 0 -19 -6 -17 -30z"/>
</g>
</svg>
